<svg width="261" height="181" viewBox="0 0 261 181" fill="none" xmlns="http://www.w3.org/2000/svg">
<path d="M257 132.5H259V130.5C259 113.625 255.676 96.9155 249.219 81.3252C242.761 65.7348 233.296 51.5691 221.363 39.6368C209.431 27.7044 195.265 18.2392 179.675 11.7815C164.084 5.32375 147.375 2 130.5 2C113.625 2 96.9155 5.32375 81.3252 11.7815C65.7348 18.2392 51.5691 27.7045 39.6368 39.6368C27.7044 51.5691 18.2392 65.7348 11.7815 81.3252C5.32375 96.9155 2 113.625 2 130.5L2 132.5H4H25.8881H27.8881V130.5C27.8881 117.025 30.5423 103.682 35.699 91.2321C40.8557 78.7827 48.414 67.4708 57.9424 57.9425C67.4708 48.4141 78.7827 40.8557 91.2321 35.699C103.682 30.5423 117.025 27.8881 130.5 27.8881C143.975 27.8881 157.318 30.5423 169.768 35.699C182.217 40.8557 193.529 48.414 203.058 57.9424C212.586 67.4708 220.144 78.7827 225.301 91.2321C230.458 103.682 233.112 117.025 233.112 130.5V132.5H235.112H257Z" fill="#ABCBCA" stroke="white" stroke-width="4"/>
<path d="M203.686 104.143L205.1 102.729L203.686 101.314C194.075 91.7036 182.665 84.0798 170.108 78.8785C157.551 73.6771 144.092 71 130.5 71C116.908 71 103.449 73.6771 90.8922 78.8785C78.335 84.0798 66.9253 91.7036 57.3144 101.314L55.9002 102.729L57.3144 104.143L129.086 175.914L130.5 177.328L131.914 175.914L203.686 104.143Z" fill="#ABCBCA" stroke="white" stroke-width="4"/>
</svg>
