<svg width="253" height="171" viewBox="0 0 253 171" fill="none" xmlns="http://www.w3.org/2000/svg">
<path d="M253 126.5C253 109.888 249.728 93.4382 243.371 78.0905C237.014 62.7429 227.696 48.7976 215.949 37.051C204.202 25.3044 190.257 15.9865 174.909 9.62924C159.562 3.27202 143.112 -7.26143e-07 126.5 0C109.888 7.26143e-07 93.4382 3.27202 78.0905 9.62924C62.7429 15.9865 48.7976 25.3044 37.051 37.051C25.3044 48.7976 15.9865 62.7429 9.62924 78.0906C3.27202 93.4382 -1.45229e-06 109.888 0 126.5H21.8881C21.8881 112.762 24.594 99.1589 29.8512 86.4668C35.1085 73.7747 42.8141 62.2423 52.5282 52.5282C62.2423 42.8141 73.7747 35.1085 86.4668 29.8512C99.1589 24.594 112.762 21.8881 126.5 21.8881C140.238 21.8881 153.841 24.594 166.533 29.8512C179.225 35.1085 190.758 42.8141 200.472 52.5282C210.186 62.2423 217.892 73.7747 223.149 86.4668C228.406 99.1589 231.112 112.762 231.112 126.5H253Z" fill="#ABCBCA"/>
<path d="M198.271 98.7287C188.846 89.3035 177.657 81.8271 165.342 76.7262C153.028 71.6254 139.829 69 126.5 69C113.171 69 99.9722 71.6254 87.6576 76.7262C75.3431 81.8271 64.1538 89.3035 54.7286 98.7287L126.5 170.5L198.271 98.7287Z" fill="#ABCBCA"/>
</svg>
