<svg width="300" height="248" viewBox="0 0 300 248" fill="none" xmlns="http://www.w3.org/2000/svg">
<rect x="300" y="110.919" width="27.7298" height="101.676" rx="13.8649" transform="rotate(90 300 110.919)" fill="#ABCBCA"/>
<rect x="290.757" y="46.2164" width="27.7298" height="120.162" rx="13.8649" transform="rotate(90 290.757 46.2164)" fill="#ABCBCA"/>
<path d="M172.16 54.5262C177.403 47.0393 187.841 45.1346 194.373 51.5279C205.546 62.4647 214.084 75.9026 219.223 90.8279C226.168 110.997 226.549 132.848 220.312 153.247C214.076 173.647 201.541 191.548 184.505 204.386C167.468 217.224 146.805 224.339 125.477 224.711C104.149 225.083 83.2497 218.694 65.7759 206.458C48.302 194.223 35.1501 176.77 28.2052 156.6C21.2603 136.431 20.8789 114.581 27.1157 94.181C31.7309 79.0855 39.7948 65.3578 50.5795 54.0378C56.884 47.4203 67.3826 48.9596 72.8831 56.259C78.3836 63.5584 76.72 73.8404 70.9635 80.9396C65.4943 87.6844 61.3365 95.4561 58.7678 103.858C54.5746 117.573 54.831 132.264 59.5003 145.825C64.1696 159.385 73.012 171.12 84.7603 179.346C96.5086 187.572 110.559 191.868 124.899 191.618C139.239 191.367 153.132 186.584 164.586 177.953C176.04 169.321 184.467 157.286 188.66 143.57C192.854 129.855 192.597 115.164 187.928 101.604C185.067 93.2965 180.641 85.6746 174.94 79.1248C168.939 72.2308 166.918 62.0131 172.16 54.5262Z" fill="#ABCBCA"/>
<circle cx="68.9186" cy="46.2163" r="46.2163" fill="#ABCBCA"/>
</svg>
