
<svg width="152" height="152" viewBox="0 0 152 152" fill="none" xmlns="http://www.w3.org/2000/svg">
<path d="M4 58.9587V21.809C4 17.0858 5.87631 12.556 9.21615 9.21615C12.556 5.87631 17.0858 4 21.809 4H58.9587C63.6815 4.00101 68.2106 5.87798 71.5497 9.21805L142.786 80.4542C146.124 83.7939 148 88.3228 148 93.0451C148 97.7675 146.124 102.296 142.786 105.636L105.636 142.786C102.296 146.124 97.7675 148 93.0451 148C88.3228 148 83.7939 146.124 80.4542 142.786L9.21805 71.5497C5.87798 68.2106 4.00101 63.6815 4 58.9587Z" stroke="#ABCBCA" stroke-width="8" stroke-linecap="round" stroke-linejoin="round"/>
<circle cx="44" cy="43" r="14" stroke="#ABCBCA" stroke-width="8"/>
</svg>
